<mxfile host="app.diagrams.net" modified="2024-04-04T05:25:51.705Z" agent="Mozilla/5.0 (Windows NT 10.0; Win64; x64) AppleWebKit/537.36 (KHTML, like Gecko) Chrome/123.0.0.0 Safari/537.36" etag="D7J6C3LqiG9lDNImKPNF" version="24.2.2" type="google">
  <diagram name="Page-1" id="HoPvJJRqYWB1J7XmvUNH">
    <mxGraphModel grid="1" page="1" gridSize="10" guides="1" tooltips="1" connect="1" arrows="1" fold="1" pageScale="1" pageWidth="850" pageHeight="1100" math="0" shadow="0">
      <root>
        <mxCell id="0" />
        <mxCell id="1" parent="0" />
        <mxCell id="nAupj4RW_UxKMyBwL4Jw-29" value="" style="rounded=0;whiteSpace=wrap;html=1;" vertex="1" parent="1">
          <mxGeometry x="90" y="-190" width="1100" height="690" as="geometry" />
        </mxCell>
        <mxCell id="nAupj4RW_UxKMyBwL4Jw-1" value="" style="whiteSpace=wrap;html=1;aspect=fixed;" vertex="1" parent="1">
          <mxGeometry x="120" y="-50" width="320" height="320" as="geometry" />
        </mxCell>
        <mxCell id="nAupj4RW_UxKMyBwL4Jw-2" value="Username" style="text;html=1;strokeColor=none;fillColor=none;align=center;verticalAlign=middle;whiteSpace=wrap;rounded=0;" vertex="1" parent="1">
          <mxGeometry x="185.5" y="65" width="60" height="30" as="geometry" />
        </mxCell>
        <mxCell id="nAupj4RW_UxKMyBwL4Jw-3" value="Password" style="text;html=1;strokeColor=none;fillColor=none;align=center;verticalAlign=middle;whiteSpace=wrap;rounded=0;" vertex="1" parent="1">
          <mxGeometry x="185.5" y="95" width="60" height="30" as="geometry" />
        </mxCell>
        <mxCell id="nAupj4RW_UxKMyBwL4Jw-4" value="" style="rounded=0;whiteSpace=wrap;html=1;" vertex="1" parent="1">
          <mxGeometry x="255.5" y="70" width="120" height="20" as="geometry" />
        </mxCell>
        <mxCell id="nAupj4RW_UxKMyBwL4Jw-5" value="" style="rounded=0;whiteSpace=wrap;html=1;" vertex="1" parent="1">
          <mxGeometry x="256.5" y="100" width="120" height="20" as="geometry" />
        </mxCell>
        <mxCell id="nAupj4RW_UxKMyBwL4Jw-6" value="" style="ellipse;whiteSpace=wrap;html=1;aspect=fixed;" vertex="1" parent="1">
          <mxGeometry x="140" y="-35" width="60" height="60" as="geometry" />
        </mxCell>
        <mxCell id="nAupj4RW_UxKMyBwL4Jw-7" value="" style="endArrow=none;html=1;rounded=0;entryX=0;entryY=0;entryDx=0;entryDy=0;exitX=1;exitY=1;exitDx=0;exitDy=0;" edge="1" parent="1" source="nAupj4RW_UxKMyBwL4Jw-6" target="nAupj4RW_UxKMyBwL4Jw-6">
          <mxGeometry width="50" height="50" relative="1" as="geometry">
            <mxPoint x="310" y="135" as="sourcePoint" />
            <mxPoint x="360" y="85" as="targetPoint" />
          </mxGeometry>
        </mxCell>
        <mxCell id="nAupj4RW_UxKMyBwL4Jw-8" value="" style="endArrow=none;html=1;rounded=0;entryX=1;entryY=0;entryDx=0;entryDy=0;exitX=0;exitY=1;exitDx=0;exitDy=0;" edge="1" parent="1" source="nAupj4RW_UxKMyBwL4Jw-6" target="nAupj4RW_UxKMyBwL4Jw-6">
          <mxGeometry width="50" height="50" relative="1" as="geometry">
            <mxPoint x="310" y="135" as="sourcePoint" />
            <mxPoint x="360" y="85" as="targetPoint" />
          </mxGeometry>
        </mxCell>
        <mxCell id="nAupj4RW_UxKMyBwL4Jw-9" value="Login" style="rounded=1;whiteSpace=wrap;html=1;" vertex="1" parent="1">
          <mxGeometry x="230" y="214" width="80" height="30" as="geometry" />
        </mxCell>
        <mxCell id="nAupj4RW_UxKMyBwL4Jw-10" value="Guest Mode" style="rounded=1;whiteSpace=wrap;html=1;" vertex="1" parent="1">
          <mxGeometry x="305" y="-28" width="120" height="40" as="geometry" />
        </mxCell>
        <mxCell id="nAupj4RW_UxKMyBwL4Jw-11" value="" style="rounded=1;whiteSpace=wrap;html=1;" vertex="1" parent="1">
          <mxGeometry x="290" y="125" width="120" height="30" as="geometry" />
        </mxCell>
        <mxCell id="nAupj4RW_UxKMyBwL4Jw-12" value="Forgot Password?" style="text;html=1;strokeColor=none;fillColor=none;align=center;verticalAlign=middle;whiteSpace=wrap;rounded=0;" vertex="1" parent="1">
          <mxGeometry x="297.5" y="125" width="105" height="30" as="geometry" />
        </mxCell>
        <mxCell id="nAupj4RW_UxKMyBwL4Jw-13" value="" style="whiteSpace=wrap;html=1;aspect=fixed;strokeWidth=3;" vertex="1" parent="1">
          <mxGeometry x="790" y="-80" width="360" height="360" as="geometry" />
        </mxCell>
        <mxCell id="nAupj4RW_UxKMyBwL4Jw-14" value="&lt;span style=&quot;font-size: 16px;&quot;&gt;Guest Dashboard&lt;/span&gt;" style="rounded=0;whiteSpace=wrap;html=1;strokeWidth=3;align=left;" vertex="1" parent="1">
          <mxGeometry x="790" y="-80" width="360" height="40" as="geometry" />
        </mxCell>
        <mxCell id="nAupj4RW_UxKMyBwL4Jw-15" value="" style="rounded=0;whiteSpace=wrap;html=1;strokeWidth=2;" vertex="1" parent="1">
          <mxGeometry x="791" y="-39" width="159" height="319" as="geometry" />
        </mxCell>
        <mxCell id="nAupj4RW_UxKMyBwL4Jw-16" value="" style="rounded=1;whiteSpace=wrap;html=1;" vertex="1" parent="1">
          <mxGeometry x="805.75" y="-20" width="129.5" height="30" as="geometry" />
        </mxCell>
        <mxCell id="nAupj4RW_UxKMyBwL4Jw-17" value="" style="rounded=1;whiteSpace=wrap;html=1;" vertex="1" parent="1">
          <mxGeometry x="805.75" y="30" width="129.5" height="30" as="geometry" />
        </mxCell>
        <mxCell id="nAupj4RW_UxKMyBwL4Jw-18" value="Explore AR Field Trips" style="rounded=1;whiteSpace=wrap;html=1;" vertex="1" parent="1">
          <mxGeometry x="803.75" y="90" width="134.25" height="30" as="geometry" />
        </mxCell>
        <mxCell id="nAupj4RW_UxKMyBwL4Jw-19" value="" style="rounded=0;whiteSpace=wrap;html=1;" vertex="1" parent="1">
          <mxGeometry x="818.38" y="-6" width="104.25" height="1" as="geometry" />
        </mxCell>
        <mxCell id="nAupj4RW_UxKMyBwL4Jw-20" value="" style="rounded=0;whiteSpace=wrap;html=1;" vertex="1" parent="1">
          <mxGeometry x="818.38" y="44" width="104.25" height="1" as="geometry" />
        </mxCell>
        <mxCell id="nAupj4RW_UxKMyBwL4Jw-21" value="" style="rounded=1;whiteSpace=wrap;html=1;" vertex="1" parent="1">
          <mxGeometry x="805.75" y="30" width="129.5" height="30" as="geometry" />
        </mxCell>
        <mxCell id="nAupj4RW_UxKMyBwL4Jw-22" value="" style="rounded=0;whiteSpace=wrap;html=1;" vertex="1" parent="1">
          <mxGeometry x="818.37" y="43" width="104.25" height="1" as="geometry" />
        </mxCell>
        <mxCell id="nAupj4RW_UxKMyBwL4Jw-23" value="" style="whiteSpace=wrap;html=1;aspect=fixed;" vertex="1" parent="1">
          <mxGeometry x="970" y="10" width="150" height="150" as="geometry" />
        </mxCell>
        <mxCell id="nAupj4RW_UxKMyBwL4Jw-24" value="" style="endArrow=none;html=1;rounded=0;entryX=1;entryY=0;entryDx=0;entryDy=0;exitX=0;exitY=1;exitDx=0;exitDy=0;" edge="1" parent="1" source="nAupj4RW_UxKMyBwL4Jw-23" target="nAupj4RW_UxKMyBwL4Jw-23">
          <mxGeometry width="50" height="50" relative="1" as="geometry">
            <mxPoint x="980" y="100" as="sourcePoint" />
            <mxPoint x="1030" y="50" as="targetPoint" />
          </mxGeometry>
        </mxCell>
        <mxCell id="nAupj4RW_UxKMyBwL4Jw-25" value="" style="endArrow=none;html=1;rounded=0;entryX=0;entryY=0;entryDx=0;entryDy=0;exitX=1;exitY=1;exitDx=0;exitDy=0;" edge="1" parent="1" source="nAupj4RW_UxKMyBwL4Jw-23" target="nAupj4RW_UxKMyBwL4Jw-23">
          <mxGeometry width="50" height="50" relative="1" as="geometry">
            <mxPoint x="980" y="100" as="sourcePoint" />
            <mxPoint x="1030" y="50" as="targetPoint" />
          </mxGeometry>
        </mxCell>
        <mxCell id="nAupj4RW_UxKMyBwL4Jw-27" style="edgeStyle=orthogonalEdgeStyle;rounded=0;orthogonalLoop=1;jettySize=auto;html=1;exitX=1;exitY=0.5;exitDx=0;exitDy=0;entryX=0;entryY=0.2;entryDx=0;entryDy=0;entryPerimeter=0;" edge="1" parent="1" source="nAupj4RW_UxKMyBwL4Jw-10" target="nAupj4RW_UxKMyBwL4Jw-13">
          <mxGeometry relative="1" as="geometry" />
        </mxCell>
        <mxCell id="nAupj4RW_UxKMyBwL4Jw-30" value="Guest User Mode" style="text;html=1;align=center;verticalAlign=middle;whiteSpace=wrap;rounded=0;fontStyle=1" vertex="1" parent="1">
          <mxGeometry x="40" y="-220" width="200" height="30" as="geometry" />
        </mxCell>
      </root>
    </mxGraphModel>
  </diagram>
</mxfile>
